<svg width="2185" height="1092" viewBox="0 0 2185 1092" fill="none" xmlns="http://www.w3.org/2000/svg">
<path d="M525.872 469.315C528.178 468.656 531.553 467.833 535.999 466.845C540.527 465.857 545.879 464.951 552.054 464.128C558.229 463.222 565.103 462.481 572.678 461.905C580.335 461.246 588.527 460.917 597.254 460.917C612.732 460.917 626.358 462.069 638.131 464.375C649.987 466.68 659.908 470.591 667.894 476.107C675.88 481.623 681.89 488.951 685.924 498.089C690.041 507.228 692.099 518.631 692.099 532.298C692.099 545.718 689.876 556.956 685.43 566.013C680.984 574.987 674.892 582.191 667.153 587.624C659.414 593.058 650.357 596.928 639.984 599.233C629.61 601.538 618.495 602.691 606.639 602.691C596.924 602.691 587.909 602.115 579.594 600.962C571.278 599.809 563.91 597.916 557.488 595.281V649.62H525.872V469.315ZM598.736 487.345C593.384 487.345 588.609 487.51 584.41 487.839C580.293 488.168 576.547 488.621 573.172 489.198C569.879 489.691 566.956 490.309 564.403 491.05C561.851 491.709 559.546 492.45 557.488 493.273V572.311C561.028 573.299 564.321 574.122 567.367 574.781C570.496 575.357 573.83 575.81 577.371 576.139C580.993 576.469 585.11 576.716 589.72 576.88C594.413 576.963 600.053 577.004 606.639 577.004C616.354 577.004 624.629 575.892 631.462 573.669C638.378 571.364 644.018 568.235 648.381 564.284C652.827 560.332 656.079 555.639 658.138 550.205C660.196 544.689 661.225 538.72 661.225 532.298C661.225 523.571 659.825 516.326 657.026 510.562C654.227 504.799 650.151 500.189 644.8 496.731C639.448 493.273 632.903 490.844 625.164 489.445C617.425 488.045 608.615 487.345 598.736 487.345Z" fill="url(#paint0_linear_1_2)"/>
<path d="M757.918 602.691H729.761V417.199H757.918V602.691Z" fill="url(#paint1_linear_1_2)"/>
<path d="M947.481 552.304C945.422 550.493 942.87 548.723 939.824 546.994C936.778 545.265 933.032 543.742 928.586 542.425C924.14 541.025 918.829 539.914 912.655 539.09C906.562 538.185 899.399 537.732 891.166 537.732C883.839 537.732 876.882 537.896 870.295 538.226C863.791 538.473 858.069 539.296 853.129 540.696C848.189 542.013 844.278 544.154 841.397 547.117C838.515 550.081 837.075 554.198 837.075 559.467V575.275C844.32 576.427 852.306 577.374 861.033 578.115C869.76 578.856 879.475 579.227 890.178 579.227C898.741 579.227 907.838 578.938 917.471 578.362C927.186 577.704 937.189 576.427 947.481 574.534V552.304ZM891.907 461.905C896.024 461.905 901.005 462.111 906.85 462.522C912.696 462.934 918.788 463.675 925.128 464.745C931.467 465.733 937.724 467.133 943.899 468.944C950.156 470.673 955.755 472.978 960.695 475.86C965.717 478.659 969.751 482.035 972.797 485.987C975.844 489.938 977.367 494.59 977.367 499.942V595.528C970.451 596.928 962.63 598.122 953.902 599.11C946.41 600.015 937.477 600.839 927.104 601.58C916.73 602.321 905.162 602.691 892.401 602.691C879.722 602.691 866.22 602.156 851.894 601.086C837.651 600.015 822.749 598.163 807.188 595.528V551.069C807.188 546.294 808.3 542.136 810.523 538.596C812.828 534.974 815.957 531.886 819.908 529.334C823.86 526.782 828.512 524.682 833.864 523.036C839.215 521.389 844.978 520.072 851.153 519.084C857.328 518.096 863.75 517.437 870.419 517.108C877.087 516.696 883.756 516.49 890.425 516.49C900.552 516.49 909.155 517.149 916.236 518.466C923.399 519.701 929.327 521.06 934.019 522.542C939.453 524.353 943.94 526.37 947.481 528.593V508.587C947.481 505.211 946.657 502.329 945.011 499.942C943.364 497.472 941.141 495.414 938.342 493.767C935.543 492.038 932.332 490.679 928.709 489.691C925.087 488.621 921.299 487.798 917.347 487.222C913.396 486.645 909.361 486.275 905.245 486.11C901.211 485.945 897.423 485.863 893.883 485.863C890.178 485.863 886.226 485.987 882.027 486.234C877.828 486.398 873.63 486.769 869.431 487.345C865.314 487.921 861.321 488.745 857.451 489.815C853.664 490.803 850.289 492.161 847.325 493.89C844.361 495.619 841.973 497.719 840.162 500.189C838.433 502.576 837.568 505.458 837.568 508.833L806.941 500.93C806.941 495.414 808.3 490.638 811.017 486.604C813.734 482.488 817.315 478.988 821.761 476.107C826.289 473.225 831.476 470.879 837.322 469.068C843.167 467.174 849.218 465.733 855.476 464.745C861.815 463.675 868.113 462.934 874.371 462.522C880.628 462.111 886.473 461.905 891.907 461.905Z" fill="url(#paint2_linear_1_2)"/>
<path d="M1049.85 545.389C1049.85 549.999 1050.47 553.992 1051.71 557.368C1052.94 560.661 1054.63 563.501 1056.77 565.889C1058.91 568.194 1061.34 570.088 1064.06 571.57C1066.86 573.052 1069.78 574.204 1072.82 575.028C1075.87 575.769 1078.96 576.304 1082.09 576.633C1085.22 576.88 1088.22 577.004 1091.1 577.004C1101.56 577.004 1111.07 575.645 1119.63 572.928C1128.19 570.211 1135.81 566.877 1142.48 562.925V461.905L1174.34 464.375V608.866C1174.34 614.711 1173.1 620.145 1170.63 625.167C1168.16 630.19 1164.58 634.512 1159.89 638.135C1155.2 641.84 1149.43 644.721 1142.6 646.779C1135.77 648.838 1127.99 649.867 1119.26 649.867V628.378C1122.55 628.378 1125.6 628.049 1128.4 627.39C1131.2 626.732 1133.63 625.703 1135.68 624.303C1137.83 622.986 1139.47 621.298 1140.62 619.24C1141.86 617.264 1142.48 614.958 1142.48 612.324V586.389C1138.61 588.777 1134.66 590.959 1130.62 592.935C1126.67 594.911 1122.51 596.64 1118.15 598.122C1113.78 599.521 1109.22 600.633 1104.44 601.456C1099.66 602.279 1094.64 602.691 1089.37 602.691C1076.61 602.691 1065.7 601.662 1056.65 599.604C1047.59 597.463 1040.14 594.334 1034.29 590.218C1028.53 586.019 1024.29 580.832 1021.57 574.657C1018.86 568.482 1017.5 561.278 1017.5 553.045V464.375L1049.85 461.905V545.389Z" fill="url(#paint3_linear_1_2)"/>
<path d="M1253.25 602.691H1225.09V417.199H1253.25V602.691Z" fill="url(#paint4_linear_1_2)"/>
<path d="M1339.32 602.691H1307.95V461.905H1339.32V602.691ZM1323.76 413C1329.85 413 1334.67 414.029 1338.21 416.087C1341.75 418.063 1343.52 421.233 1343.52 425.597V431.772C1343.52 435.723 1341.75 438.564 1338.21 440.293C1334.67 442.022 1329.85 442.886 1323.76 442.886C1317.91 442.886 1313.18 442.022 1309.56 440.293C1306.02 438.564 1304.25 435.723 1304.25 431.772V425.597C1304.25 421.233 1306.02 418.063 1309.56 416.087C1313.18 414.029 1317.91 413 1323.76 413Z" fill="url(#paint5_linear_1_2)"/>
<path d="M1469.85 461.905C1479.65 461.905 1489.2 462.522 1498.5 463.757C1507.81 464.91 1516.16 466.927 1523.57 469.809C1530.98 472.608 1537.08 476.436 1541.85 481.294C1546.63 486.151 1549.47 492.203 1550.37 499.448L1521.72 507.352C1521.72 503.07 1520.24 499.53 1517.27 496.731C1514.39 493.849 1510.52 491.626 1505.67 490.062C1500.89 488.415 1495.37 487.263 1489.12 486.604C1482.86 485.945 1476.44 485.616 1469.85 485.616C1463.51 485.616 1457.21 485.945 1450.96 486.604C1444.78 487.18 1439.23 488.292 1434.29 489.938C1429.43 491.503 1425.48 493.685 1422.43 496.484C1419.47 499.283 1417.98 502.906 1417.98 507.352V522.418H1550.37V565.148C1550.37 570.006 1549.3 574.328 1547.16 578.115C1545.02 581.82 1542.06 585.072 1538.27 587.871C1534.48 590.588 1530 592.935 1524.81 594.911C1519.7 596.804 1514.15 598.327 1508.14 599.48C1502.21 600.633 1495.95 601.456 1489.36 601.95C1482.86 602.444 1476.36 602.691 1469.85 602.691C1459.89 602.691 1450.26 602.115 1440.95 600.962C1431.65 599.727 1423.29 597.71 1415.88 594.911C1408.47 592.029 1402.38 588.201 1397.61 583.426C1392.91 578.568 1390.16 572.475 1389.33 565.148L1417.98 557.244C1417.98 561.772 1419.47 565.436 1422.43 568.235C1425.48 571.035 1429.43 573.216 1434.29 574.781C1439.23 576.345 1444.78 577.415 1450.96 577.992C1457.21 578.486 1463.51 578.733 1469.85 578.733C1476.44 578.733 1482.86 578.445 1489.12 577.868C1495.37 577.21 1500.89 576.098 1505.67 574.534C1510.52 572.887 1514.39 570.705 1517.27 567.988C1520.24 565.189 1521.72 561.608 1521.72 557.244V542.178H1389.33V499.448C1389.33 494.59 1390.4 490.309 1392.54 486.604C1394.68 482.817 1397.61 479.565 1401.31 476.848C1405.1 474.049 1409.54 471.702 1414.65 469.809C1419.75 467.833 1425.27 466.268 1431.2 465.116C1437.21 463.963 1443.47 463.14 1449.97 462.646C1456.56 462.152 1463.18 461.905 1469.85 461.905Z" fill="url(#paint6_linear_1_2)"/>
<path d="M1631.26 460.176H1662.63V480.923H1631.26V602.691H1601.87V480.923H1578.65V460.176H1601.87V417.199H1631.26V460.176Z" fill="url(#paint7_linear_1_2)"/>
<path d="M615.597 669.89V667.016H641.002V669.89H629.899V702.053H626.7V669.89H615.597Z" fill="#E5E5E5"/>
<path d="M645.718 711.907C645.114 711.907 644.549 711.85 644.025 711.736C643.5 711.622 643.084 711.496 642.776 711.36L643.597 708.674C644.635 708.993 645.559 709.107 646.368 709.016C647.178 708.936 647.897 708.571 648.524 707.921C649.151 707.282 649.71 706.301 650.2 704.978L651.159 702.31L641.493 675.775H644.794L652.596 698.033H652.835L660.636 675.775H663.938L652.818 706.21C652.35 707.476 651.774 708.531 651.09 709.375C650.406 710.231 649.613 710.863 648.712 711.274C647.823 711.696 646.825 711.907 645.718 711.907Z" fill="#E5E5E5"/>
<path d="M668.932 711.907V675.775H671.892V680.788H672.251C672.616 680.001 673.118 679.197 673.757 678.376C674.395 677.543 675.239 676.842 676.289 676.272C677.349 675.701 678.684 675.416 680.292 675.416C682.459 675.416 684.352 675.986 685.972 677.127C687.603 678.256 688.869 679.841 689.77 681.883C690.682 683.913 691.138 686.28 691.138 688.983C691.138 691.697 690.682 694.075 689.77 696.117C688.869 698.158 687.603 699.749 685.972 700.89C684.352 702.03 682.47 702.6 680.326 702.6C678.741 702.6 677.412 702.315 676.34 701.745C675.279 701.175 674.418 700.473 673.757 699.641C673.107 698.797 672.605 697.976 672.251 697.177H671.977V711.907H668.932ZM671.943 688.931C671.943 691.053 672.257 692.935 672.884 694.577C673.523 696.208 674.435 697.491 675.621 698.426C676.819 699.35 678.267 699.812 679.967 699.812C681.712 699.812 683.183 699.333 684.381 698.375C685.59 697.405 686.508 696.099 687.135 694.457C687.774 692.815 688.093 690.973 688.093 688.931C688.093 686.913 687.779 685.093 687.152 683.474C686.536 681.854 685.624 680.571 684.415 679.625C683.206 678.667 681.723 678.188 679.967 678.188C678.256 678.188 676.802 678.65 675.604 679.573C674.407 680.486 673.494 681.752 672.867 683.371C672.251 684.979 671.943 686.833 671.943 688.931Z" fill="#E5E5E5"/>
<path d="M707.479 702.6C705.027 702.6 702.906 702.03 701.115 700.89C699.324 699.738 697.939 698.147 696.958 696.117C695.988 694.075 695.504 691.726 695.504 689.068C695.504 686.422 695.988 684.073 696.958 682.02C697.939 679.955 699.29 678.342 701.012 677.178C702.746 676.004 704.748 675.416 707.017 675.416C708.443 675.416 709.817 675.678 711.14 676.203C712.463 676.716 713.649 677.509 714.699 678.581C715.759 679.642 716.598 680.982 717.214 682.601C717.829 684.21 718.137 686.114 718.137 688.315V689.821H697.608V687.135H715.024C715.024 685.447 714.682 683.93 713.997 682.584C713.324 681.227 712.383 680.155 711.174 679.368C709.977 678.581 708.591 678.188 707.017 678.188C705.352 678.188 703.887 678.632 702.621 679.522C701.355 680.412 700.362 681.586 699.644 683.046C698.937 684.506 698.577 686.103 698.566 687.836V689.445C698.566 691.532 698.925 693.357 699.644 694.919C700.374 696.47 701.406 697.673 702.74 698.529C704.075 699.384 705.654 699.812 707.479 699.812C708.722 699.812 709.812 699.618 710.747 699.23C711.693 698.842 712.486 698.323 713.125 697.673C713.775 697.012 714.265 696.288 714.596 695.501L717.487 696.442C717.088 697.548 716.432 698.569 715.52 699.504C714.619 700.439 713.49 701.192 712.133 701.762C710.787 702.321 709.236 702.6 707.479 702.6Z" fill="#E5E5E5"/>
<path d="M743.541 675.775C743.347 673.825 742.486 672.274 740.958 671.122C739.43 669.97 737.508 669.394 735.193 669.394C733.562 669.394 732.125 669.674 730.881 670.233C729.65 670.791 728.68 671.567 727.973 672.559C727.277 673.54 726.93 674.658 726.93 675.912C726.93 676.836 727.129 677.646 727.528 678.342C727.928 679.037 728.464 679.636 729.136 680.138C729.821 680.628 730.574 681.05 731.395 681.404C732.227 681.757 733.066 682.054 733.91 682.294L737.605 683.354C738.723 683.662 739.84 684.056 740.958 684.535C742.076 685.014 743.096 685.618 744.02 686.348C744.955 687.067 745.702 687.95 746.261 689C746.832 690.038 747.117 691.286 747.117 692.746C747.117 694.617 746.632 696.299 745.663 697.793C744.693 699.287 743.302 700.473 741.488 701.352C739.675 702.218 737.502 702.652 734.97 702.652C732.587 702.652 730.516 702.258 728.76 701.471C727.004 700.673 725.624 699.572 724.62 698.17C723.616 696.767 723.052 695.141 722.926 693.294H726.211C726.325 694.674 726.781 695.843 727.58 696.801C728.378 697.759 729.416 698.489 730.693 698.991C731.971 699.481 733.396 699.726 734.97 699.726C736.715 699.726 738.266 699.436 739.624 698.854C740.992 698.261 742.064 697.44 742.84 696.39C743.627 695.33 744.02 694.098 744.02 692.695C744.02 691.509 743.712 690.517 743.096 689.718C742.481 688.909 741.619 688.23 740.513 687.682C739.418 687.135 738.147 686.65 736.698 686.228L732.507 684.997C729.758 684.175 727.625 683.041 726.108 681.592C724.591 680.144 723.833 678.296 723.833 676.049C723.833 674.167 724.335 672.514 725.339 671.088C726.354 669.651 727.722 668.533 729.444 667.735C731.178 666.925 733.123 666.52 735.278 666.52C737.457 666.52 739.384 666.919 741.061 667.718C742.737 668.516 744.066 669.617 745.047 671.019C746.039 672.411 746.569 673.996 746.638 675.775H743.541Z" fill="#E5E5E5"/>
<path d="M763.483 702.6C761.134 702.6 759.087 702.013 757.342 700.838C755.608 699.664 754.262 698.055 753.304 696.014C752.346 693.972 751.867 691.646 751.867 689.034C751.867 686.399 752.352 684.056 753.321 682.003C754.302 679.95 755.659 678.342 757.393 677.178C759.127 676.004 761.14 675.416 763.432 675.416C765.188 675.416 766.78 675.758 768.205 676.443C769.631 677.116 770.806 678.068 771.729 679.3C772.665 680.52 773.252 681.946 773.491 683.577H770.412C770.093 682.094 769.323 680.828 768.103 679.779C766.894 678.718 765.354 678.188 763.483 678.188C761.807 678.188 760.324 678.644 759.035 679.556C757.747 680.457 756.737 681.718 756.007 683.337C755.289 684.945 754.93 686.81 754.93 688.931C754.93 691.064 755.283 692.952 755.99 694.594C756.697 696.225 757.69 697.502 758.967 698.426C760.256 699.35 761.761 699.812 763.483 699.812C764.647 699.812 765.707 699.595 766.665 699.162C767.635 698.717 768.445 698.09 769.095 697.28C769.756 696.47 770.201 695.506 770.429 694.389H773.509C773.28 695.974 772.716 697.388 771.815 698.631C770.925 699.863 769.768 700.833 768.342 701.54C766.928 702.247 765.308 702.6 763.483 702.6Z" fill="#E5E5E5"/>
<path d="M779.072 702.053V675.775H782.031V679.813H782.254C782.778 678.49 783.691 677.423 784.991 676.614C786.303 675.793 787.785 675.382 789.439 675.382C789.69 675.382 789.969 675.388 790.277 675.399C790.585 675.41 790.842 675.422 791.047 675.433V678.53C790.91 678.507 790.671 678.473 790.329 678.427C789.986 678.382 789.616 678.359 789.217 678.359C787.848 678.359 786.628 678.65 785.556 679.231C784.495 679.801 783.657 680.594 783.041 681.609C782.425 682.624 782.117 683.782 782.117 685.082V702.053H779.072Z" fill="#E5E5E5"/>
<path d="M795.314 702.053V675.775H798.377V702.053H795.314ZM796.871 671.259C796.244 671.259 795.708 671.048 795.263 670.626C794.818 670.193 794.596 669.674 794.596 669.069C794.596 668.465 794.818 667.951 795.263 667.529C795.708 667.096 796.244 666.879 796.871 666.879C797.498 666.879 798.034 667.096 798.479 667.529C798.924 667.951 799.146 668.465 799.146 669.069C799.146 669.674 798.924 670.193 798.479 670.626C798.034 671.048 797.498 671.259 796.871 671.259Z" fill="#E5E5E5"/>
<path d="M805.467 711.907V675.775H808.426V680.788H808.785C809.15 680.001 809.652 679.197 810.291 678.376C810.93 677.543 811.774 676.842 812.823 676.272C813.884 675.701 815.218 675.416 816.826 675.416C818.993 675.416 820.886 675.986 822.506 677.127C824.137 678.256 825.403 679.841 826.304 681.883C827.216 683.913 827.672 686.28 827.672 688.983C827.672 691.697 827.216 694.075 826.304 696.117C825.403 698.158 824.137 699.749 822.506 700.89C820.886 702.03 819.005 702.6 816.86 702.6C815.275 702.6 813.946 702.315 812.874 701.745C811.814 701.175 810.952 700.473 810.291 699.641C809.641 698.797 809.139 697.976 808.785 697.177H808.512V711.907H805.467ZM808.478 688.931C808.478 691.053 808.791 692.935 809.418 694.577C810.057 696.208 810.97 697.491 812.156 698.426C813.353 699.35 814.802 699.812 816.501 699.812C818.246 699.812 819.717 699.333 820.915 698.375C822.124 697.405 823.042 696.099 823.669 694.457C824.308 692.815 824.627 690.973 824.627 688.931C824.627 686.913 824.314 685.093 823.686 683.474C823.07 681.854 822.158 680.571 820.949 679.625C819.74 678.667 818.257 678.188 816.501 678.188C814.79 678.188 813.336 678.65 812.139 679.573C810.941 680.486 810.029 681.752 809.401 683.371C808.785 684.979 808.478 686.833 808.478 688.931Z" fill="#E5E5E5"/>
<path d="M843.74 675.775V678.427H831.2V675.775H843.74ZM835.117 669.48H838.18V695.193C838.18 696.288 838.368 697.149 838.744 697.776C839.121 698.392 839.611 698.831 840.216 699.093C840.82 699.344 841.464 699.47 842.149 699.47C842.548 699.47 842.89 699.447 843.175 699.401C843.46 699.344 843.711 699.287 843.928 699.23L844.578 701.985C844.282 702.099 843.917 702.201 843.483 702.292C843.05 702.395 842.514 702.446 841.875 702.446C840.757 702.446 839.679 702.201 838.642 701.711C837.615 701.22 836.771 700.49 836.11 699.521C835.448 698.552 835.117 697.348 835.117 695.911V669.48Z" fill="#E5E5E5"/>
<path d="M872.628 675.775V678.427H860.088V675.775H872.628ZM864.006 669.48H867.068V695.193C867.068 696.288 867.256 697.149 867.633 697.776C868.009 698.392 868.499 698.831 869.104 699.093C869.708 699.344 870.353 699.47 871.037 699.47C871.436 699.47 871.778 699.447 872.064 699.401C872.349 699.344 872.6 699.287 872.816 699.23L873.466 701.985C873.17 702.099 872.805 702.201 872.371 702.292C871.938 702.395 871.402 702.446 870.763 702.446C869.646 702.446 868.568 702.201 867.53 701.711C866.504 701.22 865.66 700.49 864.998 699.521C864.337 698.552 864.006 697.348 864.006 695.911V669.48Z" fill="#E5E5E5"/>
<path d="M888.511 702.6C886.242 702.6 884.235 702.024 882.49 700.873C880.756 699.721 879.399 698.13 878.418 696.099C877.437 694.058 876.947 691.703 876.947 689.034C876.947 686.342 877.437 683.976 878.418 681.934C879.399 679.881 880.756 678.285 882.49 677.144C884.235 675.992 886.242 675.416 888.511 675.416C890.781 675.416 892.783 675.992 894.516 677.144C896.25 678.296 897.607 679.893 898.588 681.934C899.58 683.976 900.076 686.342 900.076 689.034C900.076 691.703 899.586 694.058 898.605 696.099C897.624 698.13 896.261 699.721 894.516 700.873C892.783 702.024 890.781 702.6 888.511 702.6ZM888.511 699.812C890.336 699.812 891.882 699.321 893.148 698.341C894.414 697.36 895.372 696.054 896.022 694.423C896.683 692.792 897.014 690.996 897.014 689.034C897.014 687.072 896.683 685.27 896.022 683.628C895.372 681.986 894.414 680.668 893.148 679.676C891.882 678.684 890.336 678.188 888.511 678.188C886.698 678.188 885.153 678.684 883.875 679.676C882.609 680.668 881.646 681.986 880.984 683.628C880.334 685.27 880.009 687.072 880.009 689.034C880.009 690.996 880.334 692.792 880.984 694.423C881.646 696.054 882.609 697.36 883.875 698.341C885.141 699.321 886.687 699.812 888.511 699.812Z" fill="#E5E5E5"/>
<path d="M916.011 702.6C913.741 702.6 911.734 702.024 909.989 700.873C908.255 699.721 906.898 698.13 905.917 696.099C904.937 694.058 904.446 691.703 904.446 689.034C904.446 686.342 904.937 683.976 905.917 681.934C906.898 679.881 908.255 678.285 909.989 677.144C911.734 675.992 913.741 675.416 916.011 675.416C918.281 675.416 920.282 675.992 922.016 677.144C923.749 678.296 925.107 679.893 926.088 681.934C927.08 683.976 927.576 686.342 927.576 689.034C927.576 691.703 927.085 694.058 926.105 696.099C925.124 698.13 923.761 699.721 922.016 700.873C920.282 702.024 918.281 702.6 916.011 702.6ZM916.011 699.812C917.836 699.812 919.381 699.321 920.647 698.341C921.913 697.36 922.871 696.054 923.521 694.423C924.183 692.792 924.514 690.996 924.514 689.034C924.514 687.072 924.183 685.27 923.521 683.628C922.871 681.986 921.913 680.668 920.647 679.676C919.381 678.684 917.836 678.188 916.011 678.188C914.198 678.188 912.652 678.684 911.375 679.676C910.109 680.668 909.145 681.986 908.484 683.628C907.834 685.27 907.508 687.072 907.508 689.034C907.508 690.996 907.834 692.792 908.484 694.423C909.145 696.054 910.109 697.36 911.375 698.341C912.641 699.321 914.186 699.812 916.011 699.812Z" fill="#E5E5E5"/>
<path d="M936.342 667.016V702.053H933.297V667.016H936.342Z" fill="#E5E5E5"/>
<path d="M961.092 681.541L958.303 682.328C958.03 681.541 957.642 680.828 957.14 680.189C956.638 679.551 955.982 679.043 955.173 678.667C954.374 678.29 953.382 678.102 952.196 678.102C950.417 678.102 948.957 678.524 947.816 679.368C946.676 680.212 946.105 681.301 946.105 682.636C946.105 683.765 946.493 684.683 947.269 685.39C948.056 686.086 949.265 686.639 950.896 687.049L954.865 688.025C957.066 688.561 958.714 689.41 959.809 690.574C960.915 691.737 961.468 693.197 961.468 694.953C961.468 696.436 961.058 697.753 960.237 698.905C959.415 700.057 958.269 700.964 956.798 701.625C955.338 702.275 953.644 702.6 951.717 702.6C949.151 702.6 947.035 702.024 945.37 700.873C943.705 699.709 942.638 698.033 942.171 695.843L945.096 695.124C945.472 696.687 946.208 697.867 947.303 698.666C948.409 699.464 949.864 699.863 951.666 699.863C953.684 699.863 955.298 699.413 956.507 698.512C957.716 697.599 958.32 696.459 958.32 695.09C958.32 694.029 957.967 693.14 957.26 692.421C956.553 691.691 955.481 691.155 954.044 690.813L949.749 689.787C947.468 689.239 945.78 688.372 944.686 687.186C943.591 686 943.043 684.529 943.043 682.773C943.043 681.324 943.437 680.052 944.224 678.957C945.011 677.851 946.094 676.984 947.474 676.357C948.854 675.73 950.428 675.416 952.196 675.416C954.602 675.416 956.524 675.964 957.961 677.059C959.41 678.142 960.453 679.636 961.092 681.541Z" fill="#E5E5E5"/>
<path d="M990.57 675.775V678.427H977.654V675.775H990.57ZM981.692 702.053V671.926C981.692 670.512 982.017 669.32 982.667 668.351C983.328 667.381 984.189 666.646 985.25 666.144C986.311 665.642 987.434 665.391 988.62 665.391C989.419 665.391 990.08 665.459 990.605 665.596C991.141 665.722 991.563 665.847 991.871 665.973L990.981 668.642C990.753 668.573 990.474 668.493 990.143 668.402C989.812 668.311 989.396 668.265 988.894 668.265C987.571 668.265 986.55 668.636 985.832 669.377C985.113 670.118 984.754 671.179 984.754 672.559L984.737 702.053H981.692Z" fill="#E5E5E5"/>
<path d="M1004.82 702.6C1002.55 702.6 1000.54 702.024 998.794 700.873C997.06 699.721 995.703 698.13 994.722 696.099C993.741 694.058 993.251 691.703 993.251 689.034C993.251 686.342 993.741 683.976 994.722 681.934C995.703 679.881 997.06 678.285 998.794 677.144C1000.54 675.992 1002.55 675.416 1004.82 675.416C1007.09 675.416 1009.09 675.992 1010.82 677.144C1012.55 678.296 1013.91 679.893 1014.89 681.934C1015.88 683.976 1016.38 686.342 1016.38 689.034C1016.38 691.703 1015.89 694.058 1014.91 696.099C1013.93 698.13 1012.57 699.721 1010.82 700.873C1009.09 702.024 1007.09 702.6 1004.82 702.6ZM1004.82 699.812C1006.64 699.812 1008.19 699.321 1009.45 698.341C1010.72 697.36 1011.68 696.054 1012.33 694.423C1012.99 692.792 1013.32 690.996 1013.32 689.034C1013.32 687.072 1012.99 685.27 1012.33 683.628C1011.68 681.986 1010.72 680.668 1009.45 679.676C1008.19 678.684 1006.64 678.188 1004.82 678.188C1003 678.188 1001.46 678.684 1000.18 679.676C998.914 680.668 997.95 681.986 997.288 683.628C996.638 685.27 996.313 687.072 996.313 689.034C996.313 690.996 996.638 692.792 997.288 694.423C997.95 696.054 998.914 697.36 1000.18 698.341C1001.45 699.321 1002.99 699.812 1004.82 699.812Z" fill="#E5E5E5"/>
<path d="M1022.1 702.053V675.775H1025.06V679.813H1025.28C1025.81 678.49 1026.72 677.423 1028.02 676.614C1029.33 675.793 1030.82 675.382 1032.47 675.382C1032.72 675.382 1033 675.388 1033.31 675.399C1033.62 675.41 1033.87 675.422 1034.08 675.433V678.53C1033.94 678.507 1033.7 678.473 1033.36 678.427C1033.02 678.382 1032.65 678.359 1032.25 678.359C1030.88 678.359 1029.66 678.65 1028.59 679.231C1027.53 679.801 1026.69 680.594 1026.07 681.609C1025.46 682.624 1025.15 683.782 1025.15 685.082V702.053H1022.1Z" fill="#E5E5E5"/>
<path d="M1056.73 702.053L1048.79 675.775H1052.01L1058.24 697.451H1058.46L1064.67 675.775H1067.9L1074.06 697.4H1074.3L1080.53 675.775H1083.74L1075.81 702.053H1072.66L1066.43 680.514H1066.11L1059.88 702.053H1056.73Z" fill="#E5E5E5"/>
<path d="M1098.02 702.6C1095.75 702.6 1093.74 702.024 1092 700.873C1090.26 699.721 1088.91 698.13 1087.92 696.099C1086.94 694.058 1086.45 691.703 1086.45 689.034C1086.45 686.342 1086.94 683.976 1087.92 681.934C1088.91 679.881 1090.26 678.285 1092 677.144C1093.74 675.992 1095.75 675.416 1098.02 675.416C1100.29 675.416 1102.29 675.992 1104.02 677.144C1105.76 678.296 1107.11 679.893 1108.09 681.934C1109.09 683.976 1109.58 686.342 1109.58 689.034C1109.58 691.703 1109.09 694.058 1108.11 696.099C1107.13 698.13 1105.77 699.721 1104.02 700.873C1102.29 702.024 1100.29 702.6 1098.02 702.6ZM1098.02 699.812C1099.84 699.812 1101.39 699.321 1102.65 698.341C1103.92 697.36 1104.88 696.054 1105.53 694.423C1106.19 692.792 1106.52 690.996 1106.52 689.034C1106.52 687.072 1106.19 685.27 1105.53 683.628C1104.88 681.986 1103.92 680.668 1102.65 679.676C1101.39 678.684 1099.84 678.188 1098.02 678.188C1096.21 678.188 1094.66 678.684 1093.38 679.676C1092.12 680.668 1091.15 681.986 1090.49 683.628C1089.84 685.27 1089.52 687.072 1089.52 689.034C1089.52 690.996 1089.84 692.792 1090.49 694.423C1091.15 696.054 1092.12 697.36 1093.38 698.341C1094.65 699.321 1096.19 699.812 1098.02 699.812Z" fill="#E5E5E5"/>
<path d="M1115.3 702.053V675.775H1118.26V679.813H1118.49C1119.01 678.49 1119.92 677.423 1121.22 676.614C1122.54 675.793 1124.02 675.382 1125.67 675.382C1125.92 675.382 1126.2 675.388 1126.51 675.399C1126.82 675.41 1127.07 675.422 1127.28 675.433V678.53C1127.14 678.507 1126.9 678.473 1126.56 678.427C1126.22 678.382 1125.85 678.359 1125.45 678.359C1124.08 678.359 1122.86 678.65 1121.79 679.231C1120.73 679.801 1119.89 680.594 1119.27 681.609C1118.66 682.624 1118.35 683.782 1118.35 685.082V702.053H1115.3Z" fill="#E5E5E5"/>
<path d="M1134.28 692.13L1134.25 688.144H1134.93L1147.25 675.775H1151.1L1138.94 687.956L1138.66 688.008L1134.28 692.13ZM1131.51 702.053V667.016H1134.56V702.053H1131.51ZM1147.89 702.053L1137.21 688.555L1139.4 686.451L1151.79 702.053H1147.89Z" fill="#E5E5E5"/>
<path d="M1155.89 702.053V675.775H1158.96V702.053H1155.89ZM1157.45 671.259C1156.82 671.259 1156.29 671.048 1155.84 670.626C1155.4 670.193 1155.18 669.674 1155.18 669.069C1155.18 668.465 1155.4 667.951 1155.84 667.529C1156.29 667.096 1156.82 666.879 1157.45 666.879C1158.08 666.879 1158.61 667.096 1159.06 667.529C1159.5 667.951 1159.73 668.465 1159.73 669.069C1159.73 669.674 1159.5 670.193 1159.06 670.626C1158.61 671.048 1158.08 671.259 1157.45 671.259Z" fill="#E5E5E5"/>
<path d="M1169.09 685.63V702.053H1166.05V675.775H1169.01V679.898H1169.28C1169.9 678.553 1170.85 677.475 1172.15 676.665C1173.47 675.844 1175.09 675.433 1177.01 675.433C1178.78 675.433 1180.33 675.804 1181.67 676.545C1183.01 677.275 1184.06 678.353 1184.8 679.779C1185.55 681.204 1185.93 682.955 1185.93 685.031V702.053H1182.88V685.219C1182.88 683.063 1182.28 681.358 1181.07 680.104C1179.87 678.849 1178.26 678.222 1176.24 678.222C1174.86 678.222 1173.64 678.518 1172.57 679.111C1171.49 679.705 1170.64 680.56 1170.02 681.678C1169.4 682.784 1169.09 684.101 1169.09 685.63Z" fill="#E5E5E5"/>
<path d="M1203.01 712.455C1201.22 712.455 1199.65 712.221 1198.3 711.753C1196.96 711.297 1195.82 710.67 1194.9 709.871C1193.97 709.073 1193.26 708.178 1192.74 707.185L1195.24 705.543C1195.62 706.204 1196.12 706.855 1196.75 707.493C1197.38 708.132 1198.21 708.662 1199.23 709.084C1200.25 709.506 1201.51 709.717 1203.01 709.717C1205.33 709.717 1207.21 709.136 1208.64 707.972C1210.07 706.809 1210.79 705.001 1210.79 702.549V696.63H1210.52C1210.16 697.428 1209.66 698.227 1208.99 699.025C1208.33 699.812 1207.47 700.468 1206.39 700.992C1205.33 701.517 1204.02 701.779 1202.44 701.779C1200.34 701.779 1198.48 701.26 1196.85 700.222C1195.23 699.185 1193.95 697.702 1193.02 695.774C1192.09 693.836 1191.63 691.526 1191.63 688.846C1191.63 686.188 1192.08 683.85 1192.98 681.832C1193.89 679.813 1195.17 678.239 1196.8 677.11C1198.43 675.981 1200.33 675.416 1202.49 675.416C1204.1 675.416 1205.44 675.701 1206.5 676.272C1207.56 676.83 1208.41 677.526 1209.05 678.359C1209.7 679.191 1210.2 680.001 1210.57 680.788H1210.88V675.775H1213.85V702.737C1213.85 704.961 1213.38 706.792 1212.43 708.229C1211.49 709.666 1210.2 710.727 1208.57 711.411C1206.94 712.107 1205.08 712.455 1203.01 712.455ZM1202.8 698.991C1204.49 698.991 1205.93 698.586 1207.13 697.776C1208.33 696.955 1209.25 695.78 1209.88 694.252C1210.52 692.724 1210.84 690.904 1210.84 688.794C1210.84 686.742 1210.53 684.922 1209.9 683.337C1209.27 681.74 1208.36 680.486 1207.16 679.573C1205.98 678.65 1204.52 678.188 1202.8 678.188C1201.05 678.188 1199.56 678.661 1198.35 679.608C1197.14 680.554 1196.23 681.832 1195.62 683.44C1195 685.036 1194.69 686.821 1194.69 688.794C1194.69 690.802 1195.01 692.575 1195.63 694.115C1196.26 695.643 1197.18 696.841 1198.39 697.708C1199.6 698.563 1201.07 698.991 1202.8 698.991Z" fill="#E5E5E5"/>
<path d="M1239.37 702.053L1231.43 675.775H1234.65L1240.88 697.451H1241.1L1247.31 675.775H1250.54L1256.7 697.4H1256.94L1263.17 675.775H1266.38L1258.45 702.053H1255.3L1249.07 680.514H1248.75L1242.52 702.053H1239.37Z" fill="#E5E5E5"/>
<path d="M1271.37 702.053V675.775H1274.44V702.053H1271.37ZM1272.93 671.259C1272.3 671.259 1271.77 671.048 1271.32 670.626C1270.88 670.193 1270.66 669.674 1270.66 669.069C1270.66 668.465 1270.88 667.951 1271.32 667.529C1271.77 667.096 1272.3 666.879 1272.93 666.879C1273.56 666.879 1274.09 667.096 1274.54 667.529C1274.98 667.951 1275.21 668.465 1275.21 669.069C1275.21 669.674 1274.98 670.193 1274.54 670.626C1274.09 671.048 1273.56 671.259 1272.93 671.259Z" fill="#E5E5E5"/>
<path d="M1291.88 675.775V678.427H1279.34V675.775H1291.88ZM1283.25 669.48H1286.32V695.193C1286.32 696.288 1286.51 697.149 1286.88 697.776C1287.26 698.392 1287.75 698.831 1288.35 699.093C1288.96 699.344 1289.6 699.47 1290.29 699.47C1290.69 699.47 1291.03 699.447 1291.31 699.401C1291.6 699.344 1291.85 699.287 1292.07 699.23L1292.72 701.985C1292.42 702.099 1292.05 702.201 1291.62 702.292C1291.19 702.395 1290.65 702.446 1290.01 702.446C1288.89 702.446 1287.82 702.201 1286.78 701.711C1285.75 701.22 1284.91 700.49 1284.25 699.521C1283.59 698.552 1283.25 697.348 1283.25 695.911V669.48Z" fill="#E5E5E5"/>
<path d="M1301.44 685.63V702.053H1298.39V667.016H1301.44V679.898H1301.71C1302.33 678.541 1303.28 677.458 1304.57 676.648C1305.87 675.838 1307.51 675.433 1309.5 675.433C1311.28 675.433 1312.84 675.798 1314.18 676.528C1315.53 677.258 1316.58 678.336 1317.33 679.762C1318.09 681.187 1318.46 682.944 1318.46 685.031V702.053H1315.4V685.219C1315.4 683.052 1314.79 681.347 1313.59 680.104C1312.39 678.849 1310.77 678.222 1308.73 678.222C1307.32 678.222 1306.08 678.518 1304.98 679.111C1303.89 679.705 1303.02 680.56 1302.38 681.678C1301.75 682.784 1301.44 684.101 1301.44 685.63Z" fill="#E5E5E5"/>
<path d="M1338.74 667.016H1342.43L1355.14 697.537H1355.45L1368.16 667.016H1371.86V702.053H1368.85V673.774H1368.57L1356.75 702.053H1353.84L1342.02 673.774H1341.75V702.053H1338.74V667.016Z" fill="#E5E5E5"/>
<path d="M1390.83 702.532C1388.68 702.532 1386.75 702.144 1385.05 701.369C1383.35 700.582 1382 699.493 1381.01 698.101C1380.02 696.71 1379.5 695.107 1379.44 693.294H1382.67C1382.73 694.571 1383.12 695.689 1383.85 696.647C1384.58 697.594 1385.55 698.335 1386.76 698.871C1387.97 699.396 1389.32 699.658 1390.8 699.658C1392.42 699.658 1393.84 699.356 1395.08 698.751C1396.32 698.147 1397.29 697.32 1397.98 696.271C1398.69 695.21 1399.04 694.012 1399.04 692.678C1399.04 691.264 1398.68 690.015 1397.97 688.931C1397.25 687.848 1396.22 687.004 1394.87 686.399C1393.54 685.795 1391.94 685.493 1390.08 685.493H1388.03V682.619H1390.08C1391.6 682.619 1392.94 682.345 1394.1 681.797C1395.27 681.239 1396.2 680.457 1396.87 679.454C1397.54 678.45 1397.88 677.27 1397.88 675.912C1397.88 674.624 1397.59 673.489 1397.01 672.508C1396.43 671.527 1395.61 670.757 1394.54 670.198C1393.5 669.639 1392.27 669.36 1390.87 669.36C1389.51 669.36 1388.27 669.622 1387.14 670.147C1386.01 670.672 1385.1 671.413 1384.4 672.371C1383.72 673.329 1383.35 674.464 1383.31 675.775H1380.21C1380.25 673.951 1380.76 672.348 1381.71 670.968C1382.68 669.577 1383.97 668.493 1385.56 667.718C1387.17 666.931 1388.95 666.537 1390.9 666.537C1392.97 666.537 1394.75 666.959 1396.26 667.803C1397.76 668.647 1398.92 669.771 1399.75 671.173C1400.58 672.565 1400.99 674.099 1400.99 675.775C1400.99 677.771 1400.45 679.482 1399.37 680.908C1398.29 682.322 1396.83 683.303 1394.99 683.85V684.073C1397.23 684.518 1398.98 685.51 1400.26 687.049C1401.55 688.578 1402.19 690.454 1402.19 692.678C1402.19 694.548 1401.7 696.231 1400.72 697.725C1399.74 699.207 1398.39 700.382 1396.68 701.249C1394.98 702.104 1393.03 702.532 1390.83 702.532Z" fill="#E5E5E5"/>
<path d="M1432.9 667.016H1436.09V690.214C1436.09 692.598 1435.54 694.731 1434.42 696.613C1433.3 698.483 1431.74 699.96 1429.75 701.044C1427.76 702.116 1425.45 702.652 1422.82 702.652C1420.2 702.652 1417.89 702.11 1415.89 701.027C1413.89 699.943 1412.34 698.466 1411.22 696.596C1410.1 694.725 1409.54 692.598 1409.54 690.214V667.016H1412.74V689.992C1412.74 691.851 1413.16 693.511 1413.99 694.97C1414.82 696.419 1415.99 697.559 1417.5 698.392C1419.01 699.225 1420.79 699.641 1422.82 699.641C1424.85 699.641 1426.62 699.225 1428.14 698.392C1429.66 697.559 1430.82 696.419 1431.65 694.97C1432.48 693.511 1432.9 691.851 1432.9 689.992V667.016Z" fill="#E5E5E5"/>
<path d="M1465.84 702.6C1463.69 702.6 1461.8 702.03 1460.18 700.89C1458.56 699.749 1457.29 698.158 1456.38 696.117C1455.48 694.075 1455.03 691.697 1455.03 688.983C1455.03 686.28 1455.48 683.913 1456.38 681.883C1457.29 679.841 1458.57 678.256 1460.2 677.127C1461.83 675.986 1463.73 675.416 1465.89 675.416C1467.49 675.416 1468.82 675.701 1469.88 676.272C1470.94 676.83 1471.79 677.526 1472.43 678.359C1473.07 679.191 1473.56 680.001 1473.92 680.788H1474.19V667.016H1477.25V702.053H1474.28V697.177H1473.92C1473.56 697.976 1473.06 698.797 1472.41 699.641C1471.76 700.473 1470.9 701.175 1469.83 701.745C1468.77 702.315 1467.44 702.6 1465.84 702.6ZM1466.2 699.812C1467.9 699.812 1469.35 699.35 1470.55 698.426C1471.74 697.491 1472.66 696.208 1473.28 694.577C1473.92 692.935 1474.24 691.053 1474.24 688.931C1474.24 686.833 1473.93 684.979 1473.3 683.371C1472.67 681.752 1471.76 680.486 1470.56 679.573C1469.37 678.65 1467.91 678.188 1466.2 678.188C1464.45 678.188 1462.96 678.667 1461.75 679.625C1460.56 680.571 1459.64 681.854 1459.02 683.474C1458.4 685.093 1458.09 686.913 1458.09 688.931C1458.09 690.973 1458.41 692.815 1459.03 694.457C1459.66 696.099 1460.57 697.405 1461.77 698.375C1462.98 699.333 1464.46 699.812 1466.2 699.812Z" fill="#E5E5E5"/>
<path d="M1492.3 702.652C1490.72 702.652 1489.27 702.344 1487.96 701.728C1486.65 701.101 1485.6 700.2 1484.83 699.025C1484.05 697.839 1483.66 696.402 1483.66 694.714C1483.66 693.414 1483.91 692.319 1484.4 691.429C1484.89 690.539 1485.58 689.81 1486.49 689.239C1487.39 688.669 1488.45 688.218 1489.68 687.888C1490.92 687.557 1492.27 687.3 1493.76 687.118C1495.23 686.935 1496.47 686.776 1497.49 686.639C1498.51 686.502 1499.29 686.285 1499.83 685.989C1500.37 685.692 1500.63 685.213 1500.63 684.552V683.936C1500.63 682.145 1500.1 680.737 1499.03 679.71C1497.97 678.672 1496.44 678.153 1494.44 678.153C1492.55 678.153 1491 678.57 1489.8 679.402C1488.62 680.235 1487.79 681.216 1487.31 682.345L1484.42 681.301C1485.01 679.864 1485.83 678.718 1486.88 677.863C1487.93 676.996 1489.1 676.374 1490.4 675.998C1491.7 675.61 1493.02 675.416 1494.36 675.416C1495.36 675.416 1496.4 675.547 1497.49 675.81C1498.58 676.072 1499.6 676.528 1500.53 677.178C1501.47 677.817 1502.22 678.712 1502.81 679.864C1503.39 681.005 1503.68 682.453 1503.68 684.21V702.053H1500.63V697.896H1500.45C1500.08 698.671 1499.54 699.424 1498.82 700.154C1498.1 700.884 1497.2 701.483 1496.12 701.95C1495.03 702.418 1493.76 702.652 1492.3 702.652ZM1492.71 699.863C1494.33 699.863 1495.74 699.504 1496.92 698.785C1498.11 698.067 1499.02 697.115 1499.66 695.928C1500.31 694.731 1500.63 693.414 1500.63 691.977V688.179C1500.41 688.395 1500.02 688.589 1499.49 688.76C1498.96 688.931 1498.35 689.085 1497.66 689.222C1496.97 689.348 1496.29 689.456 1495.6 689.547C1494.92 689.638 1494.3 689.718 1493.76 689.787C1492.27 689.969 1491.01 690.254 1489.96 690.642C1488.91 691.03 1488.11 691.566 1487.55 692.25C1486.99 692.923 1486.71 693.79 1486.71 694.851C1486.71 696.447 1487.28 697.685 1488.42 698.563C1489.56 699.43 1490.99 699.863 1492.71 699.863Z" fill="#E5E5E5"/>
<path d="M1521.17 675.775V678.427H1508.63V675.775H1521.17ZM1512.54 669.48H1515.61V695.193C1515.61 696.288 1515.79 697.149 1516.17 697.776C1516.55 698.392 1517.04 698.831 1517.64 699.093C1518.25 699.344 1518.89 699.47 1519.58 699.47C1519.97 699.47 1520.32 699.447 1520.6 699.401C1520.89 699.344 1521.14 699.287 1521.35 699.23L1522 701.985C1521.71 702.099 1521.34 702.201 1520.91 702.292C1520.48 702.395 1519.94 702.446 1519.3 702.446C1518.18 702.446 1517.11 702.201 1516.07 701.711C1515.04 701.22 1514.2 700.49 1513.54 699.521C1512.87 698.552 1512.54 697.348 1512.54 695.911V669.48Z" fill="#E5E5E5"/>
<path d="M1534.46 702.652C1532.87 702.652 1531.42 702.344 1530.11 701.728C1528.8 701.101 1527.76 700.2 1526.98 699.025C1526.21 697.839 1525.82 696.402 1525.82 694.714C1525.82 693.414 1526.06 692.319 1526.55 691.429C1527.04 690.539 1527.74 689.81 1528.64 689.239C1529.54 688.669 1530.61 688.218 1531.84 687.888C1533.07 687.557 1534.43 687.3 1535.91 687.118C1537.38 686.935 1538.63 686.776 1539.64 686.639C1540.67 686.502 1541.45 686.285 1541.99 685.989C1542.52 685.692 1542.79 685.213 1542.79 684.552V683.936C1542.79 682.145 1542.25 680.737 1541.18 679.71C1540.12 678.672 1538.59 678.153 1536.6 678.153C1534.7 678.153 1533.16 678.57 1531.96 679.402C1530.77 680.235 1529.94 681.216 1529.46 682.345L1526.57 681.301C1527.16 679.864 1527.99 678.718 1529.03 677.863C1530.08 676.996 1531.26 676.374 1532.56 675.998C1533.86 675.61 1535.18 675.416 1536.51 675.416C1537.51 675.416 1538.56 675.547 1539.64 675.81C1540.74 676.072 1541.75 676.528 1542.69 677.178C1543.62 677.817 1544.38 678.712 1544.96 679.864C1545.54 681.005 1545.83 682.453 1545.83 684.21V702.053H1542.79V697.896H1542.6C1542.24 698.671 1541.69 699.424 1540.98 700.154C1540.26 700.884 1539.36 701.483 1538.27 701.95C1537.19 702.418 1535.92 702.652 1534.46 702.652ZM1534.87 699.863C1536.49 699.863 1537.89 699.504 1539.08 698.785C1540.26 698.067 1541.18 697.115 1541.81 695.928C1542.46 694.731 1542.79 693.414 1542.79 691.977V688.179C1542.56 688.395 1542.18 688.589 1541.64 688.76C1541.12 688.931 1540.51 689.085 1539.81 689.222C1539.13 689.348 1538.44 689.456 1537.76 689.547C1537.08 689.638 1536.46 689.718 1535.91 689.787C1534.43 689.969 1533.16 690.254 1532.11 690.642C1531.06 691.03 1530.26 691.566 1529.7 692.25C1529.14 692.923 1528.86 693.79 1528.86 694.851C1528.86 696.447 1529.43 697.685 1530.57 698.563C1531.71 699.43 1533.15 699.863 1534.87 699.863Z" fill="#E5E5E5"/>
<path d="M1555.4 702.31C1554.73 702.31 1554.15 702.07 1553.66 701.591C1553.18 701.101 1552.94 700.519 1552.94 699.846C1552.94 699.162 1553.18 698.58 1553.66 698.101C1554.15 697.622 1554.73 697.383 1555.4 697.383C1556.09 697.383 1556.67 697.622 1557.15 698.101C1557.62 698.58 1557.86 699.162 1557.86 699.846C1557.86 700.291 1557.75 700.701 1557.52 701.078C1557.31 701.454 1557.01 701.756 1556.63 701.985C1556.27 702.201 1555.86 702.31 1555.4 702.31Z" fill="#E5E5E5"/>
<defs>
<linearGradient id="paint0_linear_1_2" x1="1088.98" y1="446.288" x2="1088.98" y2="659.398" gradientUnits="userSpaceOnUse">
<stop stop-color="#E94410"/>
<stop offset="1" stop-color="#FF0099"/>
</linearGradient>
<linearGradient id="paint1_linear_1_2" x1="1088.98" y1="446.288" x2="1088.98" y2="659.398" gradientUnits="userSpaceOnUse">
<stop stop-color="#E94410"/>
<stop offset="1" stop-color="#FF0099"/>
</linearGradient>
<linearGradient id="paint2_linear_1_2" x1="1088.98" y1="446.288" x2="1088.98" y2="659.398" gradientUnits="userSpaceOnUse">
<stop stop-color="#E94410"/>
<stop offset="1" stop-color="#FF0099"/>
</linearGradient>
<linearGradient id="paint3_linear_1_2" x1="1088.98" y1="446.288" x2="1088.98" y2="659.398" gradientUnits="userSpaceOnUse">
<stop stop-color="#E94410"/>
<stop offset="1" stop-color="#FF0099"/>
</linearGradient>
<linearGradient id="paint4_linear_1_2" x1="1088.98" y1="446.288" x2="1088.98" y2="659.398" gradientUnits="userSpaceOnUse">
<stop stop-color="#E94410"/>
<stop offset="1" stop-color="#FF0099"/>
</linearGradient>
<linearGradient id="paint5_linear_1_2" x1="1088.98" y1="446.288" x2="1088.98" y2="659.398" gradientUnits="userSpaceOnUse">
<stop stop-color="#E94410"/>
<stop offset="1" stop-color="#FF0099"/>
</linearGradient>
<linearGradient id="paint6_linear_1_2" x1="1088.98" y1="446.288" x2="1088.98" y2="659.398" gradientUnits="userSpaceOnUse">
<stop stop-color="#E94410"/>
<stop offset="1" stop-color="#FF0099"/>
</linearGradient>
<linearGradient id="paint7_linear_1_2" x1="1088.98" y1="446.288" x2="1088.98" y2="659.398" gradientUnits="userSpaceOnUse">
<stop stop-color="#E94410"/>
<stop offset="1" stop-color="#FF0099"/>
</linearGradient>
</defs>
</svg>
